<svg width="54" height="68" viewBox="0 0 54 68" fill="none" xmlns="http://www.w3.org/2000/svg">
<path d="M5.85061 1.42441C4.40837 1.80124 3.47937 2.33404 2.75731 3.04147C1.73934 4.03884 1.07564 5.43907 0.712774 8.08334C0.339241 10.8053 0.333374 14.4129 0.333374 19.5856V48.1473C1.62894 47.2603 3.08917 46.5853 4.66334 46.1723C5.04324 46.0723 5.43681 45.9943 5.85061 45.933V1.42441Z" fill="#F05124"/>
<path d="M11.3678 45.7117C11.4069 45.7117 11.4461 45.7117 11.4854 45.7117H53.6667V19.5856C53.6667 14.4129 53.6607 10.8053 53.2873 8.08329C52.9243 5.43906 52.2607 4.03882 51.2427 3.04146C50.2247 2.04412 48.7957 1.39386 46.0967 1.03836C43.3183 0.67239 39.636 0.666656 34.3563 0.666656H19.6437C16.3046 0.666656 13.6044 0.668957 11.3678 0.763223V45.7117Z" fill="#F05124"/>
<path d="M15.9659 51.117H11.9118C8.31356 51.117 7.05563 51.1403 6.09163 51.3933C3.44586 52.088 1.33666 54.0147 0.432129 56.5193C0.488062 57.794 0.575696 58.9153 0.713129 59.9167C1.076 62.561 1.7397 63.9613 2.75766 64.9587C3.77566 65.956 5.20486 66.606 7.90383 66.9617C10.6821 67.3277 14.3644 67.3333 19.6441 67.3333H34.3567C39.6364 67.3333 43.3187 67.3277 46.097 66.9617C48.796 66.606 50.225 65.956 51.243 64.9587C52.261 63.9613 52.9247 62.561 53.2877 59.9167C53.5924 57.696 53.6524 54.8857 53.6644 51.117H30.6787V61.139C30.6787 62.1323 30.6787 62.6287 30.3297 62.8293C29.9807 63.03 29.5037 62.808 28.5494 62.364L23.9804 60.2377C23.6574 60.0873 23.496 60.0123 23.3224 60.0123C23.1487 60.0123 22.987 60.0873 22.6644 60.2377L18.0951 62.364C17.1408 62.808 16.6637 63.03 16.3148 62.8293C15.9659 62.6287 15.9659 62.1323 15.9659 61.139V51.117Z" fill="#F05124"/>
</svg>
